<?xml version="1.0" encoding="utf-8"?>
<!-- Svg Vector Icons : http://www.onlinewebfonts.com/icon -->
<!DOCTYPE svg PUBLIC "-//W3C//DTD SVG 1.1//EN" "http://www.w3.org/Graphics/SVG/1.1/DTD/svg11.dtd">
<svg version="1.1" xmlns="http://www.w3.org/2000/svg" xmlns:xlink="http://www.w3.org/1999/xlink" x="0px" y="0px" viewBox="0 0 256 256" enable-background="new 0 0 256 256" xml:space="preserve">
<metadata> Svg Vector Icons : http://www.onlinewebfonts.com/icon </metadata>
<g><g><g><path fill="#000000" d="M17.9,26.3c-4,2.2-7.9,8.4-7.9,12.7c0,4.3,3.9,10.5,7.9,12.7l3.7,2.1l107.8-0.3c107.2-0.2,107.8-0.2,110.3-2.1c4.9-3.6,6.4-6.6,6.4-12.4c0-5.8-1.5-8.8-6.4-12.4c-2.5-1.9-3.1-1.9-110.3-2.1L21.6,24.2L17.9,26.3z"/><path fill="#000000" d="M17.9,115.3c-4,2.2-7.9,8.4-7.9,12.7c0,4.3,3.9,10.5,7.9,12.7l3.7,2.1l107.8-0.3c107.2-0.2,107.8-0.2,110.3-2.1c4.9-3.6,6.4-6.6,6.4-12.4c0-5.8-1.5-8.8-6.4-12.4c-2.5-1.9-3.1-1.9-110.3-2.1l-107.8-0.3L17.9,115.3z"/><path fill="#000000" d="M18.8,203.7c-4.3,2.2-5.8,4-7.5,8.3c-2.7,7,0.3,14.6,7,18c3.7,1.9,4.5,1.9,111.3,1.7c106.9-0.3,107.6-0.3,110.1-2.2c4.9-3.6,6.4-6.6,6.4-12.4c0-5.8-1.5-8.8-6.4-12.4c-2.5-1.9-3.1-1.9-110.3-2.2C32.9,202.2,21.3,202.4,18.8,203.7z"/></g></g></g>
</svg>